<svg width="30" height="30" viewBox="0 0 30 30" fill="none" xmlns="http://www.w3.org/2000/svg">
<path d="M0 15C0 6.71573 6.71573 0 15 0C23.2843 0 30 6.71573 30 15C30 23.2843 23.2843 30 15 30C6.71573 30 0 23.2843 0 15Z" fill="#DA251D"/>
<g clip-path="url(#clip0)">
<path d="M15 17.6309V22.8947L19.9342 20.2628V15L15 17.6309Z" fill="white"/>
<path d="M15 7.10547L10.0658 9.73639V15.0002V20.264L15 17.6311L10.0668 15.0002L15 12.3683V7.10547Z" fill="white"/>
<path d="M15 12.3702L19.9342 15.0011V9.7373L15 12.3702Z" fill="white"/>
</g>
<defs>
<clipPath id="clip0">
<rect width="15.7895" height="15.7895" fill="white" transform="translate(7.10529 7.10547)"/>
</clipPath>
</defs>
</svg>
