<svg width="30" height="30" viewBox="0 0 30 30" fill="none" xmlns="http://www.w3.org/2000/svg">
<path fill-rule="evenodd" clip-rule="evenodd" d="M15 0C6.71573 0 0 6.71573 0 15C0 23.2843 6.71573 30 15 30C23.2843 30 30 23.2843 30 15C30 6.71573 23.2843 0 15 0ZM11.702 7.04867C12.5554 7.00984 12.8281 7.00034 15.0007 7.00034H14.9982C17.1716 7.00034 17.4433 7.00984 18.2966 7.04867C19.1483 7.08767 19.73 7.22251 20.24 7.42034C20.7666 7.62451 21.2116 7.89785 21.6567 8.34285C22.1017 8.78753 22.375 9.23386 22.58 9.76004C22.7767 10.2687 22.9117 10.85 22.9517 11.7017C22.99 12.5551 23 12.8277 23 15.0004C23 17.1731 22.99 17.4451 22.9517 18.2985C22.9117 19.1498 22.7767 19.7313 22.58 20.2401C22.375 20.7662 22.1017 21.2125 21.6567 21.6572C21.2121 22.1022 20.7665 22.3762 20.2405 22.5805C19.7315 22.7783 19.1495 22.9132 18.2978 22.9522C17.4444 22.991 17.1726 23.0005 14.9997 23.0005C12.8272 23.0005 12.5547 22.991 11.7014 22.9522C10.8499 22.9132 10.2684 22.7783 9.75936 22.5805C9.23352 22.3762 8.78718 22.1022 8.34268 21.6572C7.89784 21.2125 7.6245 20.7662 7.42 20.24C7.22233 19.7313 7.0875 19.15 7.04833 18.2983C7.00966 17.445 7 17.1731 7 15.0004C7 12.8277 7.01 12.5549 7.04816 11.7016C7.0865 10.8502 7.2215 10.2687 7.41983 9.75987C7.62484 9.23386 7.89817 8.78753 8.34318 8.34285C8.78785 7.89802 9.23419 7.62468 9.76036 7.42034C10.269 7.22251 10.8504 7.08767 11.702 7.04867Z" fill="#DA251D"/>
<path fill-rule="evenodd" clip-rule="evenodd" d="M14.2831 8.44145C14.4224 8.44124 14.5723 8.4413 14.7341 8.44137L15.0008 8.44145C17.1368 8.44145 17.3899 8.44912 18.2335 8.48745C19.0135 8.52312 19.4368 8.65346 19.7188 8.76296C20.0921 8.90796 20.3583 9.08129 20.6381 9.3613C20.9181 9.6413 21.0915 9.90797 21.2368 10.2813C21.3463 10.563 21.4768 10.9863 21.5123 11.7663C21.5507 12.6097 21.559 12.863 21.559 14.998C21.559 17.133 21.5507 17.3864 21.5123 18.2297C21.4767 19.0097 21.3463 19.4331 21.2368 19.7147C21.0918 20.0881 20.9181 20.3539 20.6381 20.6337C20.3581 20.9137 20.0923 21.0871 19.7188 21.2321C19.4371 21.3421 19.0135 21.4721 18.2335 21.5078C17.3901 21.5461 17.1368 21.5544 15.0008 21.5544C12.8646 21.5544 12.6114 21.5461 11.7681 21.5078C10.988 21.4718 10.5647 21.3414 10.2825 21.2319C9.9092 21.0869 9.64253 20.9136 9.36253 20.6336C9.08253 20.3536 8.90919 20.0876 8.76386 19.7141C8.65435 19.4324 8.52385 19.0091 8.48835 18.2291C8.45002 17.3857 8.44235 17.1324 8.44235 14.996C8.44235 12.8597 8.45002 12.6077 8.48835 11.7643C8.52402 10.9843 8.65435 10.561 8.76386 10.279C8.90886 9.90563 9.08253 9.63897 9.36253 9.35896C9.64253 9.07896 9.9092 8.90562 10.2825 8.76029C10.5645 8.65029 10.988 8.52029 11.7681 8.48445C12.5061 8.45112 12.7921 8.44112 14.2831 8.43945V8.44145ZM19.2711 9.76999C18.7411 9.76999 18.3111 10.1995 18.3111 10.7297C18.3111 11.2597 18.7411 11.6897 19.2711 11.6897C19.8011 11.6897 20.2311 11.2597 20.2311 10.7297C20.2311 10.1997 19.8011 9.76966 19.2711 9.76966V9.76999ZM10.8924 14.9998C10.8924 12.731 12.7318 10.8915 15.0006 10.8914C17.2694 10.8914 19.1085 12.731 19.1085 14.9998C19.1085 17.2687 17.2696 19.1074 15.0008 19.1074C12.7319 19.1074 10.8924 17.2687 10.8924 14.9998Z" fill="#DA251D"/>
<path d="M15.0007 12.334C16.4734 12.334 17.6674 13.5278 17.6674 15.0007C17.6674 16.4734 16.4734 17.6674 15.0007 17.6674C13.5279 17.6674 12.334 16.4734 12.334 15.0007C12.334 13.5278 13.5279 12.334 15.0007 12.334Z" fill="#DA251D"/>
</svg>
