<svg width="30" height="30" viewBox="0 0 30 30" fill="none" xmlns="http://www.w3.org/2000/svg">
<path fill-rule="evenodd" clip-rule="evenodd" d="M15 0C6.71573 0 0 6.71573 0 15C0 23.2843 6.71573 30 15 30C23.2843 30 30 23.2843 30 15C30 6.71573 23.2843 0 15 0ZM21.251 9.84318C21.9395 10.0321 22.4816 10.5887 22.6656 11.2956C23 12.5768 23 15.2499 23 15.2499C23 15.2499 23 17.9229 22.6656 19.2041C22.4816 19.911 21.9395 20.4676 21.251 20.6566C20.0034 20.9999 15 20.9999 15 20.9999C15 20.9999 9.99663 20.9999 8.74891 20.6566C8.06045 20.4676 7.51827 19.911 7.33427 19.2041C7 17.9229 7 15.2499 7 15.2499C7 15.2499 7 12.5768 7.33427 11.2956C7.51827 10.5887 8.06045 10.0321 8.74891 9.84318C9.99663 9.49985 15 9.49985 15 9.49985C15 9.49985 20.0034 9.49985 21.251 9.84318Z" fill="#b90207"/>
<path d="M13.5 18V13L17.5 15.5001L13.5 18Z" fill="#b90207"/>
</svg>
