<svg width="20" height="20" viewBox="0 0 20 20" fill="none" xmlns="http://www.w3.org/2000/svg">
<path d="M11.3258 9.99967L15.0368 6.28874C15.2129 6.11293 15.3119 5.87435 15.3122 5.6255C15.3124 5.37665 15.2137 5.1379 15.0379 4.96178C14.8621 4.78566 14.6235 4.6866 14.3747 4.68638C14.1258 4.68616 13.8871 4.7848 13.711 4.96061L10 8.67155L6.2891 4.96061C6.11298 4.78449 5.87411 4.68555 5.62504 4.68555C5.37597 4.68555 5.1371 4.78449 4.96098 4.96061C4.78486 5.13673 4.68591 5.3756 4.68591 5.62467C4.68591 5.87374 4.78486 6.11262 4.96098 6.28874L8.67191 9.99967L4.96098 13.7106C4.78486 13.8867 4.68591 14.1256 4.68591 14.3747C4.68591 14.6237 4.78486 14.8626 4.96098 15.0387C5.1371 15.2149 5.37597 15.3138 5.62504 15.3138C5.87411 15.3138 6.11298 15.2149 6.2891 15.0387L10 11.3278L13.711 15.0387C13.8871 15.2149 14.126 15.3138 14.375 15.3138C14.6241 15.3138 14.863 15.2149 15.0391 15.0387C15.2152 14.8626 15.3142 14.6237 15.3142 14.3747C15.3142 14.1256 15.2152 13.8867 15.0391 13.7106L11.3258 9.99967Z" fill="#141516"/>
</svg>
