<svg width="174" height="31" viewBox="0 0 174 31" fill="none" xmlns="http://www.w3.org/2000/svg">
<path fill-rule="evenodd" clip-rule="evenodd" d="M18.2549 4.3305L15.0459 7.60396C10.2323 3.51639 4.64647 6.34022 4.64647 12.2365C4.64647 17.4788 9.9548 19.0934 14.5712 17.346V14.3246H11.0412V10.1655H19.0238V20.7557C11.6864 25.3474 0 22.2136 0 12.1037C0 0.474561 13.2909 -1.15706 18.2549 4.3305Z" fill="#D70B12"/>
<path fill-rule="evenodd" clip-rule="evenodd" d="M23.1515 2.31389C23.57 2.31792 23.9779 2.44809 24.3239 2.68798C24.6699 2.92787 24.9384 3.26674 25.0957 3.66189C25.2529 4.05705 25.2919 4.49078 25.2076 4.90844C25.1232 5.3261 24.9195 5.70898 24.6219 6.00883C24.3244 6.30867 23.9464 6.51206 23.5356 6.59336C23.1247 6.67466 22.6995 6.63024 22.3134 6.46568C21.9273 6.30112 21.5977 6.02379 21.3661 5.66866C21.1344 5.31352 21.0112 4.89647 21.0118 4.47008C21.0131 4.18529 21.0695 3.90356 21.1778 3.64101C21.2861 3.37846 21.4441 3.14024 21.6429 2.93997C21.8416 2.7397 22.0771 2.58132 22.336 2.47389C22.5948 2.36646 22.872 2.31209 23.1515 2.31389Z" fill="#D70B12"/>
<path d="M25.2754 8.45215H20.9999V22.4691H25.2754V8.45215Z" fill="#D70B12"/>
<path fill-rule="evenodd" clip-rule="evenodd" d="M39.7086 22.4691H36.0718V20.674C35.9548 21.0691 35.2361 21.9002 34.26 22.3771C32.5051 23.2287 27.0598 23.5216 27.0598 17.0974V8.45215H31.2415V16.2867C31.2415 19.6351 34.4639 19.7168 35.3263 17.3937C35.449 16.9831 35.5088 16.5557 35.5035 16.1266V8.45215H39.6953V22.4691" fill="#D70B12"/>
<path d="M46.1773 1.9563H41.902V22.4691H46.1773V1.9563Z" fill="#D70B12"/>
<path fill-rule="evenodd" clip-rule="evenodd" d="M50.5091 2.31399C50.9275 2.31802 51.3353 2.44819 51.6813 2.68808C52.0272 2.92797 52.2957 3.26685 52.4529 3.662C52.6102 4.05715 52.6491 4.49089 52.5648 4.90854C52.4805 5.3262 52.2768 5.70908 51.9793 6.00893C51.6818 6.30877 51.3038 6.51217 50.8931 6.59347C50.4823 6.67477 50.0571 6.63034 49.6711 6.46578C49.2851 6.30122 48.9555 6.02389 48.7239 5.66876C48.4924 5.31363 48.3691 4.89658 48.3698 4.47018C48.3733 3.8953 48.6006 3.34534 49.0017 2.94108C49.4028 2.53681 49.9449 2.31127 50.5091 2.31399Z" fill="#D70B12"/>
<path d="M52.6486 8.45215H48.3698V22.4691H52.6486V8.45215Z" fill="#D70B12"/>
<path fill-rule="evenodd" clip-rule="evenodd" d="M63.1677 16.5556C63.2981 20.1254 59.1563 20.2651 58.6549 18.8038C57.8259 16.4194 61.7436 16.5079 63.0841 16.5556H63.1643H63.1677ZM63.1643 13.49C63.1276 11.688 59.4003 10.5231 57.1874 13.0914L54.9076 10.7649C60.1023 5.80534 67.0988 8.92892 67.1657 13.2311V22.4724H63.5621V20.7386C61.5197 24.1449 53.9482 23.2865 54.2023 18.4257C54.4764 13.49 59.8115 13.8067 63.1042 13.49H63.1677H63.1643Z" fill="#D70B12"/>
<path fill-rule="evenodd" clip-rule="evenodd" d="M133.088 16.5557C133.218 20.1255 129.077 20.2652 128.575 18.8039C127.746 16.4195 131.664 16.508 133.004 16.5557H133.085H133.088ZM133.085 13.49C133.048 11.6881 129.321 10.5232 127.108 13.0915L124.881 10.7071C130.076 5.74751 137.012 8.93241 137.079 13.2346V22.4725H133.482V20.7387C131.44 24.145 123.869 23.2866 124.123 18.4258C124.393 13.49 129.732 13.8068 133.024 13.49H133.088H133.085Z" fill="#D70B12"/>
<path fill-rule="evenodd" clip-rule="evenodd" d="M81.3586 1.9563L89.0336 14.6857V1.9563H93.5999V22.5202H89.0336L81.3954 10.7037V22.5202H76.8091V1.9563H81.3586Z" fill="#D70B12"/>
<path fill-rule="evenodd" clip-rule="evenodd" d="M124.253 8.45215L118.577 22.4691H114.509L108.96 8.45215H113.47L116.605 17.4448L119.563 8.45215H124.253Z" fill="#D70B12"/>
<path fill-rule="evenodd" clip-rule="evenodd" d="M102.522 12.2127C103.137 12.2175 103.736 12.4074 104.245 12.7588C104.754 13.1101 105.149 13.607 105.381 14.1869C105.613 14.7667 105.671 15.4036 105.548 16.0172C105.426 16.6308 105.127 17.1936 104.691 17.6347C104.255 18.0759 103.701 18.3755 103.098 18.496C102.495 18.6164 101.87 18.5522 101.303 18.3115C100.735 18.0708 100.251 17.6644 99.9098 17.1434C99.5689 16.6224 99.3869 16.0102 99.3869 15.384C99.3922 14.5405 99.725 13.7334 100.313 13.1391C100.9 12.5449 101.695 12.2118 102.522 12.2127ZM102.552 8.17627C106.601 8.17627 109.907 11.4429 109.907 15.4521C109.907 19.4614 106.607 22.7246 102.552 22.7246C98.4977 22.7246 95.1984 19.458 95.1984 15.4521C95.1984 11.4463 98.5077 8.17627 102.556 8.17627H102.552Z" fill="#D70B12"/>
<path fill-rule="evenodd" clip-rule="evenodd" d="M162.26 10.7037C158.988 7.81515 154.873 7.34508 152.342 9.54215C151.964 9.86183 151.654 10.2561 151.429 10.7012C151.204 11.1463 151.07 11.6331 151.035 12.1323C151 12.6316 151.064 13.1329 151.224 13.6062C151.383 14.0795 151.635 14.5151 151.965 14.8866C154.468 17.6117 157.116 16.3854 158.179 17.2711C159.011 17.9523 158.513 19.0321 157.176 19.1411C155.715 19.2603 154.625 18.8005 152.83 17.1961L150.317 19.7577C153.873 24.2438 160.385 23.6 162.18 21.2053C163.577 19.3387 163.517 15.8029 159.96 14.454C158.225 13.7966 155.675 14.345 155.14 13.1971C154.552 11.93 156.213 11.3134 157.48 11.6983C158.394 11.9392 159.228 12.4263 159.894 13.1085L162.233 10.7241" fill="#D70B12"/>
<path fill-rule="evenodd" clip-rule="evenodd" d="M144.376 8.89151C143.403 9.36498 142.681 10.1961 142.564 10.5947V8.79272H138.931V30.1594H143.123V15.1387C143.118 14.7095 143.177 14.2821 143.3 13.8715C143.968 12.0628 146.068 11.7187 146.977 13.2345L150.246 9.90318C148.518 7.98883 145.586 8.30903 144.386 8.88129" fill="#D70B12"/>
<path d="M165.765 4.1954C165.758 3.58803 165.869 2.98526 166.093 2.42234C166.295 1.92416 166.6 1.4763 166.987 1.1095C167.365 0.745174 167.812 0.461843 168.299 0.276265C168.807 0.0899775 169.343 -0.00350165 169.882 0.000133095C170.43 -0.00402831 170.973 0.0894246 171.489 0.276265C171.976 0.452348 172.422 0.727616 172.801 1.08528C173.187 1.45982 173.487 1.9163 173.681 2.42234C173.902 2.99427 174.01 3.60501 173.999 4.21962C174.01 4.83511 173.898 5.44645 173.671 6.0169C173.47 6.51523 173.165 6.96314 172.777 7.32973C172.397 7.68559 171.951 7.96062 171.465 8.13875C170.958 8.32494 170.422 8.41842 169.882 8.41488C169.332 8.42058 168.784 8.3271 168.266 8.13875C167.779 7.95489 167.334 7.67131 166.959 7.30551C166.575 6.93818 166.275 6.49018 166.079 5.99267C165.859 5.42052 165.753 4.80971 165.765 4.1954ZM166.745 4.1954C166.73 4.69183 166.815 5.18609 166.992 5.64872C167.142 6.03215 167.372 6.37765 167.667 6.6612C167.956 6.93196 168.298 7.13821 168.67 7.26676C169.059 7.40625 169.469 7.47671 169.882 7.47507C170.304 7.47842 170.723 7.41132 171.123 7.27645C171.493 7.15231 171.832 6.94729 172.117 6.67574C172.407 6.39124 172.632 6.04571 172.777 5.66325C172.949 5.19908 173.031 4.70572 173.02 4.20993C173.034 3.71353 172.949 3.21938 172.773 2.75661C172.622 2.37339 172.392 2.02798 172.098 1.74412C171.811 1.47344 171.473 1.26568 171.104 1.13373C170.713 0.995236 170.301 0.926409 169.887 0.930261C169.459 0.924766 169.033 0.99357 168.627 1.13373C168.257 1.26322 167.919 1.47127 167.634 1.74412C167.336 2.02686 167.105 2.37469 166.959 2.76145C166.801 3.22179 166.728 3.70803 166.745 4.1954ZM168.28 2.13652C168.509 2.07382 168.743 2.03486 168.979 2.02025C169.28 1.99442 169.565 1.9815 169.835 1.9815C170.225 1.97013 170.61 2.06548 170.952 2.25763C171.113 2.3571 171.243 2.50082 171.327 2.67223C171.411 2.84365 171.446 3.03578 171.427 3.22651C171.431 3.37655 171.402 3.52559 171.342 3.66251C171.288 3.77777 171.218 3.88397 171.133 3.9774C171.054 4.06313 170.963 4.13515 170.862 4.19055C170.772 4.24029 170.676 4.27776 170.576 4.30197L171.912 6.23974H170.961L169.749 4.59264H169.098V6.23974H168.29V2.13652H168.28ZM169.664 2.68878H169.336C169.25 2.68955 169.166 2.70767 169.088 2.74207V3.92411H169.616C170.25 3.92411 170.567 3.69804 170.567 3.24589C170.567 2.87449 170.266 2.6904 169.664 2.69363V2.68878Z" fill="#D70B12"/>
</svg>
