<svg width="80" height="80" viewBox="0 0 80 80" fill="none" xmlns="http://www.w3.org/2000/svg">
<path d="M10 16.6667C10 14.8986 10.7024 13.2029 11.9526 11.9526C13.2029 10.7024 14.8986 10 16.6667 10H27.6C28.2993 10.0005 28.9807 10.221 29.5479 10.6302C30.115 11.0393 30.539 11.6165 30.76 12.28L35.7533 27.2567C36.0063 28.0178 35.9764 28.8446 35.6691 29.5855C35.3617 30.3263 34.7975 30.9315 34.08 31.29L26.5567 35.0567C30.2444 43.2185 36.7815 49.7556 44.9433 53.4433L48.71 45.92C49.0685 45.2025 49.6737 44.6383 50.4145 44.3309C51.1554 44.0236 51.9822 43.9937 52.7433 44.2467L67.72 49.24C68.384 49.4612 68.9616 49.8857 69.3708 50.4535C69.78 51.0213 70.0002 51.7034 70 52.4033V63.3333C70 65.1014 69.2976 66.7971 68.0474 68.0474C66.7971 69.2976 65.1014 70 63.3333 70H60C32.3867 70 10 47.6133 10 20V16.6667Z" stroke="white" stroke-width="6" stroke-linecap="round" stroke-linejoin="round"/>
</svg>
