<svg width="51" height="51" viewBox="0 0 51 51" fill="none" xmlns="http://www.w3.org/2000/svg">
<path d="M44.625 6.375C45.1886 6.375 45.7291 6.59888 46.1276 6.9974C46.5261 7.39591 46.75 7.93641 46.75 8.5V38.25C46.75 38.8136 46.5261 39.3541 46.1276 39.7526C45.7291 40.1511 45.1886 40.375 44.625 40.375H13.7169L4.25 47.8125V8.5C4.25 7.93641 4.47388 7.39591 4.8724 6.9974C5.27091 6.59888 5.81141 6.375 6.375 6.375H44.625ZM42.5 10.625H8.5V39.0681L12.2464 36.125H42.5V10.625ZM22.3444 15.7505L23.2943 17.2125C19.7498 19.1314 19.8114 22.2105 19.8114 22.8735C20.1407 22.831 20.4871 22.8225 20.8314 22.8544C21.7625 22.9329 22.6306 23.357 23.2649 24.0432C23.8992 24.7294 24.2538 25.6281 24.259 26.5625C24.259 27.5488 23.8672 28.4947 23.1698 29.1921C22.4724 29.8895 21.5265 30.2812 20.5403 30.2812C19.3991 30.2812 18.309 29.7606 17.6205 29.0275C16.5261 27.8673 15.9375 26.5625 15.9375 24.4481C15.9375 20.7294 18.547 17.3974 22.3444 15.7505ZM32.9694 15.7505L33.9193 17.2125C30.3748 19.1314 30.4364 22.2105 30.4364 22.8735C30.7657 22.831 31.1121 22.8225 31.4564 22.8544C32.3875 22.9329 33.2556 23.357 33.8899 24.0432C34.5242 24.7294 34.8788 25.6281 34.884 26.5625C34.884 27.5488 34.4922 28.4947 33.7948 29.1921C33.0974 29.8895 32.1515 30.2812 31.1653 30.2812C30.0241 30.2812 28.934 29.7606 28.2455 29.0275C27.1511 27.8673 26.5625 26.5625 26.5625 24.4481C26.5625 20.7294 29.172 17.3974 32.9694 15.7505Z" fill="#DA251D"/>
</svg>
