<svg width="32" height="32" viewBox="0 0 32 32" fill="none" xmlns="http://www.w3.org/2000/svg">
<circle cx="16" cy="16" r="15.5" stroke="#E3D4D3"/>
<path d="M17.145 17.876H15.221V12H17.145V17.876ZM15.338 20.541C15.1127 20.307 15 20.0253 15 19.696C15 19.3667 15.1127 19.0893 15.338 18.864C15.572 18.63 15.8537 18.513 16.183 18.513C16.5123 18.513 16.7897 18.63 17.015 18.864C17.249 19.0893 17.366 19.3667 17.366 19.696C17.366 20.0253 17.249 20.307 17.015 20.541C16.7897 20.7663 16.5123 20.879 16.183 20.879C15.8537 20.879 15.572 20.7663 15.338 20.541Z" fill="#DA251D"/>
</svg>
