<svg width="48" height="48" viewBox="0 0 48 48" fill="none" xmlns="http://www.w3.org/2000/svg">
<circle cx="24" cy="24" r="22.5" fill="#DA251D" fill-opacity="0.1" stroke="#DA251D" stroke-width="3"/>
<path fill-rule="evenodd" clip-rule="evenodd" d="M31.225 19.2749C31.4006 19.4507 31.4992 19.689 31.4992 19.9374C31.4992 20.1858 31.4006 20.4241 31.225 20.5999L22.1625 29.6624C21.9867 29.838 21.7484 29.9366 21.5 29.9366C21.2516 29.9366 21.0133 29.838 20.8375 29.6624L16.775 25.5999C16.6094 25.4222 16.5192 25.1871 16.5235 24.9443C16.5278 24.7014 16.6262 24.4696 16.798 24.2979C16.9697 24.1261 17.2015 24.0277 17.4443 24.0234C17.6872 24.0192 17.9223 24.1093 18.1 24.2749L21.5 27.6749L29.9 19.2749C30.0758 19.0993 30.3141 19.0007 30.5625 19.0007C30.8109 19.0007 31.0492 19.0993 31.225 19.2749Z" fill="#DA251D" stroke="#DA251D"/>
</svg>
