<svg width="476" height="916" viewBox="0 0 476 916" fill="none" xmlns="http://www.w3.org/2000/svg">
<path d="M864.009 504.027C856.534 559.01 839.497 599.056 814.79 630.164C790.079 661.275 757.67 683.48 719.395 702.736C689.324 717.864 655.662 731.159 619.286 745.526C609.349 749.45 599.209 753.455 588.885 757.599C540.781 776.906 488.703 799.224 434.539 830.526C380.59 861.703 320.469 856.384 263.766 829.331C207.057 802.275 153.815 753.497 113.719 697.868C73.6213 642.236 46.7092 579.804 42.5969 525.471C40.5411 498.309 44.1846 473.193 54.7032 451.962C65.2181 430.737 82.6179 413.364 108.133 401.698C159.486 378.219 195.15 337.676 223.977 292.208C238.39 269.474 251.099 245.5 263.206 221.804C266.205 215.933 269.167 210.08 272.109 204.267C281.044 186.611 289.792 169.325 298.829 153.039C322.859 109.731 348.86 73.6296 385.634 56.6136C422.374 39.6133 470 41.6087 537.419 74.8283C672.411 141.344 761.512 193.676 813.146 256.854C864.74 319.982 878.966 393.997 864.009 504.027Z" stroke="#323131"/>
<path d="M835.573 507.39C828.488 559.509 812.338 597.469 788.92 626.954C765.499 656.444 734.779 677.492 698.498 695.746C669.993 710.087 638.084 722.69 603.602 736.309C594.181 740.03 584.569 743.826 574.781 747.755C529.18 766.059 479.81 787.217 428.463 816.892C377.331 846.442 320.348 841.402 266.602 815.759C212.848 790.112 162.38 743.875 124.373 691.142C86.3639 638.405 60.8552 579.225 56.9576 527.724C55.0091 501.978 58.4628 478.173 68.4316 458.051C78.3966 437.936 94.8865 421.47 119.069 410.414C167.756 388.152 201.568 349.712 228.896 306.607C242.56 285.054 254.608 262.326 266.085 239.862C268.928 234.296 271.736 228.748 274.525 223.237C282.995 206.499 291.288 190.112 299.854 174.674C322.633 133.618 347.279 99.4012 382.131 83.2738C416.949 67.162 462.088 69.0504 525.995 100.54C653.962 163.596 738.421 213.204 787.364 273.091C836.266 332.929 849.752 403.086 835.573 507.39Z" stroke="#1E2528"/>
<path d="M811.287 510.594C804.662 559.328 789.571 594.821 767.694 622.392C745.814 649.966 717.118 669.65 683.223 686.723C656.593 700.136 626.783 711.925 594.568 724.665C585.767 728.146 576.786 731.697 567.642 735.373C525.037 752.495 478.911 772.287 430.937 800.044C383.177 827.677 329.956 822.974 279.755 799.004C229.547 775.031 182.409 731.804 146.912 682.5C111.412 633.193 87.5917 577.861 83.9575 529.71C82.1408 505.638 85.37 483.383 94.6823 464.571C103.991 445.767 119.392 430.373 141.979 420.033C187.474 399.206 219.07 363.25 244.608 322.935C257.376 302.777 268.635 281.521 279.36 260.513C282.017 255.308 284.641 250.118 287.247 244.965C295.162 229.312 302.911 213.988 310.915 199.55C332.201 161.156 355.225 129.164 387.776 114.084C420.293 99.0186 462.451 100.775 522.144 130.211C641.685 189.161 720.575 235.537 766.286 291.526C811.956 347.466 824.546 413.06 811.287 510.594Z" stroke="#1E2528"/>
<path d="M764.042 513.981C758.346 555.884 745.381 586.398 726.591 610.1C707.799 633.806 683.152 650.732 654.035 665.416C631.158 676.954 605.549 687.094 577.871 698.054C570.308 701.049 562.592 704.105 554.734 707.267C518.128 721.998 478.493 739.026 437.269 762.906C396.26 786.661 350.562 782.628 307.449 762.027C264.33 741.423 223.846 704.262 193.36 661.871C162.871 619.477 142.42 571.907 139.305 530.513C137.748 509.821 140.524 490.694 148.52 474.529C156.512 458.37 169.734 445.141 189.126 436.252C228.232 418.327 255.392 387.388 277.34 352.708C288.314 335.368 297.991 317.084 307.208 299.015C309.491 294.537 311.747 290.074 313.986 285.641C320.788 272.179 327.446 259.001 334.324 246.585C352.615 213.564 372.391 186.066 400.336 173.103C428.248 160.156 464.443 161.653 515.714 186.956C618.411 237.639 686.168 277.508 725.422 325.64C764.635 373.723 775.444 430.11 764.042 513.981Z" stroke="#1E2528"/>
</svg>
