<svg width="33" height="44" viewBox="0 0 33 44" fill="none" xmlns="http://www.w3.org/2000/svg">
<path d="M32.7314 9.43525L23.5648 0.268555C23.3929 0.0966797 23.1602 0 22.9166 0H3.66661C1.64441 0 0 1.64441 0 3.6667V40.3334C0 42.3556 1.64441 44 3.6667 44H29.3334C31.3556 44 33 42.3556 33 40.3333V10.0833C33 9.83984 32.9033 9.60713 32.7314 9.43525ZM23.8333 3.12959L29.8704 9.1667H25.6666C24.656 9.1667 23.8333 8.34402 23.8333 7.33339V3.12959ZM31.1667 40.3333C31.1667 41.3439 30.344 42.1666 29.3334 42.1666H3.6667C2.65607 42.1666 1.83339 41.3439 1.83339 40.3333V3.6667C1.83339 2.65607 2.65607 1.83339 3.6667 1.83339H22V7.33339C22 9.35559 23.6444 11 25.6667 11H31.1667V40.3333Z" fill="white"/>
<path d="M21.1737 26.91C20.3251 26.2422 19.5186 25.5556 18.9814 25.0185C18.2832 24.3203 17.661 23.6435 17.1204 22.999C17.9637 20.3931 18.3334 19.0495 18.3334 18.3333C18.3334 15.2906 17.2341 14.6666 15.5834 14.6666C14.3292 14.6666 12.8334 15.3182 12.8334 18.421C12.8334 19.7889 13.5827 21.4494 15.0678 23.3794C14.7043 24.4885 14.2773 25.7678 13.7975 27.2099C13.5665 27.9019 13.3159 28.5428 13.0509 29.1354C12.8352 29.2313 12.6257 29.3288 12.4234 29.4299C11.6947 29.7943 11.0028 30.1219 10.3609 30.4263C7.43359 31.812 5.5 32.7287 5.5 34.5387C5.5 35.8529 6.92785 36.6666 8.25 36.6666C9.9544 36.6666 12.5281 34.3901 14.4079 30.5551C16.3594 29.7853 18.7854 29.215 20.7002 28.8579C22.2345 30.0377 23.9291 31.1666 24.75 31.1666C27.0229 31.1666 27.5 29.8524 27.5 28.7504C27.5 26.5832 25.0239 26.5832 23.8333 26.5832C23.4636 26.5833 22.4718 26.6925 21.1737 26.91ZM8.25 34.8333C7.7263 34.8333 7.3718 34.5862 7.3333 34.5387C7.3333 33.8888 9.27137 32.9704 11.1459 32.0824C11.2649 32.026 11.3859 31.9696 11.5085 31.9114C10.1317 33.9077 8.77009 34.8333 8.25 34.8333ZM14.6667 18.421C14.6667 16.5 15.2629 16.5 15.5834 16.5C16.2315 16.5 16.5001 16.5 16.5001 18.3333C16.5001 18.72 16.2423 19.6868 15.7705 21.1961C15.0507 20.0878 14.6667 19.1381 14.6667 18.421ZM15.3694 28.2734C15.4267 28.1141 15.4822 27.9529 15.536 27.79C15.8761 26.7695 16.1823 25.8528 16.4553 25.0274C16.8358 25.4464 17.2458 25.8752 17.6853 26.3147C17.8572 26.4866 18.2833 26.8733 18.8509 27.3576C17.721 27.6038 16.5188 27.909 15.3694 28.2734ZM25.6667 28.7505C25.6667 29.1623 25.6667 29.3333 24.8163 29.3387C24.5665 29.285 23.9891 28.9448 23.2765 28.4596C23.5352 28.431 23.7259 28.4166 23.8333 28.4166C25.1878 28.4166 25.5718 28.5491 25.6667 28.7505Z" fill="white"/>
</svg>
