<svg width="30" height="30" viewBox="0 0 30 30" fill="none" xmlns="http://www.w3.org/2000/svg">
<path d="M0 15C0 6.71573 6.71573 0 15 0C23.2843 0 30 6.71573 30 15C30 23.2843 23.2843 30 15 30C6.71573 30 0 23.2843 0 15Z" fill="#DA251D"/>
<path fill-rule="evenodd" clip-rule="evenodd" d="M23.5764 10.923C23.7099 10.4894 23.5764 10.174 22.9855 10.174H21.0219C20.5263 10.174 20.2975 10.4499 20.1641 10.7456C20.1641 10.7456 19.1537 13.2684 17.743 14.9044C17.2855 15.3774 17.0758 15.5351 16.828 15.5351C16.6946 15.5351 16.523 15.3774 16.523 14.9438V10.9033C16.523 10.3908 16.3705 10.1543 15.9511 10.1543H12.8628C12.5578 10.1543 12.3672 10.3908 12.3672 10.6273C12.3672 11.1201 13.0725 11.2383 13.1488 12.618V15.6139C13.1488 16.2643 13.0344 16.3826 12.7866 16.3826C12.1193 16.3826 10.499 13.84 9.52672 10.9427C9.33609 10.3711 9.14546 10.1543 8.64981 10.1543H6.66722C6.09532 10.1543 6 10.4302 6 10.7259C6 11.258 6.66722 13.9386 9.10733 17.4864C10.7277 19.9107 13.0344 21.2115 15.1123 21.2115C16.3705 21.2115 16.523 20.9159 16.523 20.4231V18.5901C16.523 17.9988 16.6374 17.9003 17.0377 17.9003C17.3236 17.9003 17.8384 18.0579 19.0012 19.2208C20.3357 20.6005 20.5644 21.2312 21.3079 21.2312H23.2714C23.8433 21.2312 24.1102 20.9356 23.9577 20.364C23.7861 19.7924 23.138 18.9646 22.2992 17.9791C21.8417 17.4272 21.1554 16.8162 20.9457 16.5206C20.6597 16.1264 20.736 15.9687 20.9457 15.6139C20.9266 15.6139 23.3286 12.1056 23.5764 10.923Z" fill="white"/>
</svg>
