<svg width="52" height="1480" viewBox="0 0 52 1480" fill="none" xmlns="http://www.w3.org/2000/svg">
<rect x="0.5" y="0.5" width="51" height="1479" rx="14.5" stroke="#F5CECD"/>
<path d="M0 17H52V69C27.5 86.5 30 59.5 0 69V17Z" fill="#DA251D"/>
<rect width="52" height="64" rx="15" fill="#DA251D"/>
<path d="M26.4507 35.3115C24.5601 35.3115 23.0741 34.5918 21.9927 33.1523C20.9185 31.7057 20.3814 29.7327 20.3814 27.2334C20.3814 24.7484 20.9221 22.7861 22.0035 21.3467C23.0849 19.9072 24.5673 19.1875 26.4507 19.1875C28.3342 19.1875 29.813 19.9072 30.8873 21.3467C31.9615 22.779 32.4986 24.7376 32.4986 27.2227C32.4986 29.7148 31.9615 31.6878 30.8873 33.1416C29.813 34.5882 28.3342 35.3115 26.4507 35.3115ZM26.4507 33.0449C27.4748 33.0449 28.2698 32.5329 28.8355 31.5088C29.4084 30.4847 29.6949 29.0596 29.6949 27.2334C29.6949 25.4215 29.4084 24.0072 28.8355 22.9902C28.2626 21.9661 27.4677 21.4541 26.4507 21.4541C25.4338 21.4541 24.6317 21.9661 24.0445 22.9902C23.4644 24.0143 23.1744 25.4251 23.1744 27.2227C23.1744 29.0488 23.4608 30.4775 24.0338 31.5088C24.6138 32.5329 25.4195 33.0449 26.4507 33.0449Z" fill="white"/>
<path opacity="0.6" d="M24.8989 41.6577C25.2104 42.0122 25.3662 42.492 25.3662 43.0972C25.3662 43.7023 25.2104 44.1839 24.8989 44.542C24.5874 44.9001 24.1702 45.0791 23.6475 45.0791C23.1247 45.0791 22.7075 44.9001 22.396 44.542C22.0881 44.1839 21.9341 43.7023 21.9341 43.0972C21.9341 42.492 22.0881 42.0122 22.396 41.6577C22.7075 41.2996 23.1247 41.1206 23.6475 41.1206C24.1702 41.1206 24.5874 41.2996 24.8989 41.6577ZM23.6475 44.2358C23.848 44.2358 24.0037 44.1356 24.1147 43.9351C24.2293 43.731 24.2866 43.4517 24.2866 43.0972C24.2866 42.7391 24.2293 42.4598 24.1147 42.2593C24.0037 42.0552 23.848 41.9531 23.6475 41.9531C23.4505 41.9531 23.2948 42.0552 23.1802 42.2593C23.0692 42.4598 23.0137 42.7391 23.0137 43.0972C23.0137 43.4517 23.0692 43.731 23.1802 43.9351C23.2948 44.1356 23.4505 44.2358 23.6475 44.2358ZM23.7549 49H22.584L25.5864 44.8911L28.2505 41.2495H29.4106L26.4888 45.251L23.7549 49ZM29.5986 45.6753C29.9102 46.0334 30.0659 46.515 30.0659 47.1201C30.0659 47.7253 29.9102 48.2069 29.5986 48.5649C29.2871 48.9194 28.87 49.0967 28.3472 49.0967C27.8244 49.0967 27.4072 48.9194 27.0957 48.5649C26.7878 48.2069 26.6338 47.7253 26.6338 47.1201C26.6338 46.515 26.7878 46.0334 27.0957 45.6753C27.4072 45.3172 27.8244 45.1382 28.3472 45.1382C28.87 45.1382 29.2871 45.3172 29.5986 45.6753ZM27.8799 47.9526C27.9945 48.1567 28.1502 48.2588 28.3472 48.2588C28.5441 48.2588 28.6999 48.1567 28.8145 47.9526C28.929 47.7485 28.9863 47.4692 28.9863 47.1147C28.9863 46.7603 28.929 46.481 28.8145 46.2769C28.6999 46.0728 28.5441 45.9707 28.3472 45.9707C28.1502 45.9707 27.9945 46.0728 27.8799 46.2769C27.7689 46.481 27.7134 46.7603 27.7134 47.1147C27.7134 47.4692 27.7689 47.7485 27.8799 47.9526Z" fill="white"/>
<g opacity="0.2">
<path d="M26.866 268.5C26.4811 269.167 25.5189 269.167 25.134 268.5L22.5359 264C22.151 263.333 22.6321 262.5 23.4019 262.5L28.5981 262.5C29.3679 262.5 29.849 263.333 29.4641 264L26.866 268.5Z" fill="#DA251D"/>
<path d="M26.866 284.5C26.4811 285.167 25.5189 285.167 25.134 284.5L22.5359 280C22.151 279.333 22.6321 278.5 23.4019 278.5L28.5981 278.5C29.3679 278.5 29.849 279.333 29.4641 280L26.866 284.5Z" fill="#DA251D"/>
<path d="M26.866 300.5C26.4811 301.167 25.5189 301.167 25.134 300.5L22.5359 296C22.151 295.333 22.6321 294.5 23.4019 294.5L28.5981 294.5C29.3679 294.5 29.849 295.333 29.4641 296L26.866 300.5Z" fill="#DA251D"/>
</g>
<g opacity="0.2">
<path d="M26.866 696.5C26.4811 697.167 25.5189 697.167 25.134 696.5L22.5359 692C22.151 691.333 22.6321 690.5 23.4019 690.5L28.5981 690.5C29.3679 690.5 29.849 691.333 29.4641 692L26.866 696.5Z" fill="#DA251D"/>
<path d="M26.866 712.5C26.4811 713.167 25.5189 713.167 25.134 712.5L22.5359 708C22.151 707.333 22.6321 706.5 23.4019 706.5L28.5981 706.5C29.3679 706.5 29.849 707.333 29.4641 708L26.866 712.5Z" fill="#DA251D"/>
<path d="M26.866 728.5C26.4811 729.167 25.5189 729.167 25.134 728.5L22.5359 724C22.151 723.333 22.6321 722.5 23.4019 722.5L28.5981 722.5C29.3679 722.5 29.849 723.333 29.4641 724L26.866 728.5Z" fill="#DA251D"/>
</g>
<g opacity="0.2">
<path d="M26.866 1124.5C26.4811 1125.17 25.5189 1125.17 25.134 1124.5L22.5359 1120C22.151 1119.33 22.6321 1118.5 23.4019 1118.5L28.5981 1118.5C29.3679 1118.5 29.849 1119.33 29.4641 1120L26.866 1124.5Z" fill="#DA251D"/>
<path d="M26.866 1140.5C26.4811 1141.17 25.5189 1141.17 25.134 1140.5L22.5359 1136C22.151 1135.33 22.6321 1134.5 23.4019 1134.5L28.5981 1134.5C29.3679 1134.5 29.849 1135.33 29.4641 1136L26.866 1140.5Z" fill="#DA251D"/>
<path d="M26.866 1156.5C26.4811 1157.17 25.5189 1157.17 25.134 1156.5L22.5359 1152C22.151 1151.33 22.6321 1150.5 23.4019 1150.5L28.5981 1150.5C29.3679 1150.5 29.849 1151.33 29.4641 1152L26.866 1156.5Z" fill="#DA251D"/>
</g>
</svg>
