<svg width="48" height="48" viewBox="0 0 48 48" fill="none" xmlns="http://www.w3.org/2000/svg">
<rect width="48" height="48" fill="#DA251D"/>
<path d="M25.5148 28.0631V22.9211H40V23.2884C40 28.7671 38.4536 32.9909 35.3609 35.9598C32.5838 38.6533 28.8442 40 24.142 40C19.3452 40 15.5266 38.6227 12.6864 35.868C9.56213 32.8379 8 28.9048 8 24.0689C8 19.4778 9.54635 15.6824 12.6391 12.6829C15.7949 9.56098 19.9448 8 25.0888 8C27.8659 8 30.2959 8.53563 32.3787 9.60689C34.8087 10.8006 36.7811 12.6676 38.2959 15.208L32.9467 18.0086C32.0947 16.417 30.8639 15.208 29.2544 14.3816C27.929 13.7389 26.4458 13.4175 24.8047 13.4175C21.8383 13.4175 19.4083 14.3204 17.5148 16.1263C15.4004 18.1157 14.3432 20.8092 14.3432 24.2066C14.3432 27.4204 15.3846 30.0067 17.4675 31.9656C19.3294 33.7102 21.6647 34.5825 24.4734 34.5825C26.9349 34.5825 29.002 33.9704 30.6746 32.7461C32.1894 31.6136 33.1834 30.0526 33.6568 28.0631H25.5148Z" fill="white"/>
</svg>
