<svg width="250" height="250" viewBox="0 0 250 250" fill="none" xmlns="http://www.w3.org/2000/svg">
<rect width="250" height="250" fill="#DA251D"/>
<path fill-rule="evenodd" clip-rule="evenodd" d="M53.8844 113.48L50.5647 116.866C45.5851 112.638 39.8067 115.559 39.8067 121.659C39.8067 127.082 45.2981 128.752 50.0736 126.944V123.819H46.4219V119.516H54.6798V130.472C47.0893 135.222 35 131.98 35 121.521C35 109.491 48.7492 107.803 53.8844 113.48Z" fill="white"/>
<path fill-rule="evenodd" clip-rule="evenodd" d="M58.9498 111.394C59.3827 111.398 59.8047 111.533 60.1626 111.781C60.5205 112.029 60.7983 112.379 60.961 112.788C61.1237 113.197 61.164 113.646 61.0768 114.078C60.9895 114.51 60.7787 114.906 60.4709 115.216C60.1631 115.526 59.7721 115.737 59.3471 115.821C58.9221 115.905 58.4822 115.859 58.0828 115.689C57.6834 115.518 57.3424 115.232 57.1028 114.864C56.8632 114.497 56.7357 114.065 56.7363 113.624C56.7377 113.33 56.796 113.038 56.9081 112.767C57.0201 112.495 57.1835 112.249 57.3891 112.041C57.5947 111.834 57.8384 111.67 58.1062 111.559C58.374 111.448 58.6606 111.392 58.9498 111.394Z" fill="white"/>
<path d="M61.1469 117.744H56.724V132.244H61.1469V117.744Z" fill="white"/>
<path fill-rule="evenodd" clip-rule="evenodd" d="M76.0778 132.244H72.3155V130.387C72.1945 130.796 71.451 131.655 70.4413 132.149C68.6258 133.03 62.9928 133.333 62.9928 126.687V117.744H67.3187V125.848C67.3187 129.312 70.6522 129.397 71.5444 126.994C71.6713 126.569 71.7331 126.127 71.7277 125.683V117.744H76.064V132.244" fill="white"/>
<path d="M82.7697 111.024H78.347V132.244H82.7697V111.024Z" fill="white"/>
<path fill-rule="evenodd" clip-rule="evenodd" d="M87.2508 111.394C87.6836 111.398 88.1056 111.533 88.4634 111.781C88.8213 112.029 89.099 112.379 89.2617 112.788C89.4244 113.197 89.4646 113.646 89.3774 114.078C89.2902 114.51 89.0795 114.906 88.7717 115.216C88.4639 115.526 88.073 115.737 87.648 115.821C87.2231 115.905 86.7833 115.859 86.384 115.689C85.9846 115.518 85.6437 115.232 85.4041 114.864C85.1645 114.497 85.0371 114.065 85.0377 113.624C85.0414 113.03 85.2765 112.461 85.6914 112.042C86.1064 111.624 86.6672 111.391 87.2508 111.394Z" fill="white"/>
<path d="M89.4641 117.744H85.0377V132.244H89.4641V117.744Z" fill="white"/>
<path fill-rule="evenodd" clip-rule="evenodd" d="M100.346 126.127C100.481 129.819 96.1962 129.964 95.6774 128.452C94.8198 125.986 98.8727 126.077 100.259 126.127H100.342H100.346ZM100.342 122.955C100.304 121.091 96.4486 119.886 94.1593 122.543L91.8009 120.136C97.1748 115.006 104.413 118.237 104.482 122.687V132.247H100.754V130.454C98.641 133.978 90.8085 133.09 91.0713 128.061C91.3548 122.955 96.8739 123.283 100.28 122.955H100.346H100.342Z" fill="white"/>
<path fill-rule="evenodd" clip-rule="evenodd" d="M172.677 126.127C172.812 129.82 168.528 129.964 168.009 128.452C167.151 125.986 171.204 126.077 172.591 126.127H172.674H172.677ZM172.674 122.955C172.636 121.091 168.78 119.886 166.491 122.543L164.188 120.076C169.561 114.946 176.737 118.24 176.806 122.691V132.247H173.085V130.454C170.972 133.978 163.14 133.09 163.403 128.061C163.683 122.955 169.205 123.283 172.611 122.955H172.677H172.674Z" fill="white"/>
<path fill-rule="evenodd" clip-rule="evenodd" d="M119.164 111.024L127.104 124.192V111.024H131.827V132.297H127.104L119.202 120.073V132.297H114.458V111.024H119.164Z" fill="white"/>
<path fill-rule="evenodd" clip-rule="evenodd" d="M163.538 117.744L157.666 132.244H153.458L147.718 117.744H152.382L155.626 127.046L158.686 117.744H163.538Z" fill="white"/>
<path fill-rule="evenodd" clip-rule="evenodd" d="M141.058 121.634C141.693 121.639 142.313 121.835 142.84 122.199C143.366 122.562 143.775 123.076 144.015 123.676C144.255 124.276 144.315 124.935 144.188 125.569C144.061 126.204 143.753 126.786 143.301 127.243C142.85 127.699 142.276 128.009 141.653 128.134C141.029 128.258 140.383 128.192 139.796 127.943C139.209 127.694 138.708 127.273 138.355 126.734C138.002 126.195 137.814 125.562 137.814 124.914C137.819 124.042 138.164 123.207 138.772 122.592C139.379 121.977 140.201 121.633 141.058 121.634ZM141.089 117.458C145.276 117.458 148.696 120.837 148.696 124.985C148.696 129.132 145.283 132.508 141.089 132.508C136.894 132.508 133.481 129.129 133.481 124.985C133.481 120.841 136.905 117.458 141.092 117.458H141.089Z" fill="white"/>
<path fill-rule="evenodd" clip-rule="evenodd" d="M202.855 120.073C199.47 117.085 195.213 116.598 192.595 118.871C192.204 119.202 191.883 119.61 191.651 120.07C191.418 120.531 191.28 121.034 191.243 121.551C191.207 122.067 191.273 122.586 191.438 123.075C191.604 123.565 191.864 124.016 192.205 124.4C194.795 127.219 197.533 125.95 198.633 126.867C199.494 127.571 198.979 128.688 197.596 128.801C196.085 128.924 194.957 128.449 193.1 126.789L190.5 129.439C194.179 134.08 200.915 133.414 202.772 130.937C204.218 129.006 204.156 125.348 200.476 123.952C198.682 123.272 196.043 123.84 195.49 122.652C194.881 121.341 196.6 120.704 197.91 121.102C198.856 121.351 199.718 121.855 200.407 122.561L202.828 120.094" fill="white"/>
<path fill-rule="evenodd" clip-rule="evenodd" d="M184.355 118.198C183.348 118.688 182.601 119.548 182.48 119.96V118.096H178.722V140.199H183.058V124.661C183.053 124.217 183.114 123.775 183.241 123.35C183.933 121.479 186.104 121.123 187.045 122.691L190.427 119.245C188.639 117.264 185.606 117.596 184.365 118.188" fill="white"/>
<path d="M206.481 113.34C206.474 112.712 206.589 112.088 206.821 111.506C207.029 110.991 207.344 110.527 207.745 110.148C208.137 109.771 208.598 109.478 209.103 109.286C209.628 109.093 210.182 108.996 210.74 109C211.306 108.996 211.869 109.093 212.403 109.286C212.906 109.468 213.368 109.753 213.76 110.123C214.159 110.51 214.47 110.982 214.67 111.506C214.898 112.098 215.01 112.729 214.999 113.365C215.01 114.002 214.895 114.634 214.66 115.224C214.452 115.74 214.136 116.203 213.735 116.582C213.342 116.951 212.88 117.235 212.378 117.419C211.853 117.612 211.298 117.709 210.74 117.705C210.171 117.711 209.605 117.614 209.068 117.419C208.564 117.229 208.104 116.936 207.716 116.557C207.319 116.177 207.009 115.714 206.806 115.199C206.578 114.607 206.468 113.976 206.481 113.34ZM207.494 113.34C207.48 113.854 207.567 114.365 207.75 114.844C207.906 115.24 208.144 115.598 208.448 115.891C208.748 116.171 209.101 116.384 209.486 116.517C209.889 116.662 210.313 116.735 210.74 116.733C211.176 116.736 211.61 116.667 212.024 116.527C212.407 116.399 212.758 116.187 213.052 115.906C213.352 115.612 213.585 115.254 213.735 114.859C213.913 114.378 213.998 113.868 213.986 113.355C214 112.842 213.913 112.33 213.73 111.852C213.575 111.455 213.336 111.098 213.032 110.804C212.735 110.524 212.386 110.309 212.004 110.173C211.599 110.03 211.174 109.958 210.745 109.962C210.302 109.957 209.861 110.028 209.442 110.173C209.059 110.307 208.709 110.522 208.414 110.804C208.106 111.097 207.867 111.457 207.716 111.857C207.552 112.333 207.477 112.836 207.494 113.34ZM209.083 111.21C209.319 111.145 209.561 111.105 209.806 111.09C210.117 111.063 210.412 111.05 210.691 111.05C211.094 111.038 211.494 111.137 211.847 111.335C212.013 111.438 212.147 111.587 212.234 111.764C212.321 111.942 212.358 112.14 212.339 112.338C212.343 112.493 212.312 112.647 212.25 112.789C212.195 112.908 212.122 113.018 212.034 113.115C211.953 113.203 211.858 113.278 211.753 113.335C211.66 113.387 211.561 113.425 211.458 113.45L212.84 115.455H211.857L210.603 113.751H209.929V115.455H209.093V111.21H209.083ZM210.514 111.781H210.175C210.087 111.782 210 111.801 209.919 111.837V113.059H210.465C211.121 113.059 211.448 112.826 211.448 112.358C211.448 111.974 211.137 111.783 210.514 111.787V111.781Z" fill="white"/>
</svg>
