<svg width="10" height="42" viewBox="0 0 10 42" fill="none" xmlns="http://www.w3.org/2000/svg">
<g opacity="0.2">
<path d="M5.86603 8.5C5.48113 9.16667 4.51887 9.16667 4.13397 8.5L1.5359 4C1.151 3.33333 1.63212 2.5 2.40192 2.5L7.59808 2.5C8.36788 2.5 8.849 3.33333 8.4641 4L5.86603 8.5Z" fill="#DA251D"/>
<path d="M5.86603 24.5C5.48113 25.1667 4.51887 25.1667 4.13397 24.5L1.5359 20C1.151 19.3333 1.63212 18.5 2.40192 18.5L7.59808 18.5C8.36788 18.5 8.849 19.3333 8.4641 20L5.86603 24.5Z" fill="#DA251D"/>
<path d="M5.86603 40.5C5.48113 41.1667 4.51887 41.1667 4.13397 40.5L1.5359 36C1.151 35.3333 1.63212 34.5 2.40192 34.5L7.59808 34.5C8.36788 34.5 8.849 35.3333 8.4641 36L5.86603 40.5Z" fill="#DA251D"/>
</g>
</svg>
