<svg width="387" height="67" viewBox="0 0 387 67" fill="none" xmlns="http://www.w3.org/2000/svg">
<path fill-rule="evenodd" clip-rule="evenodd" d="M40.601 9.51126L33.4637 16.7009C22.7577 7.72321 10.3343 13.9253 10.3343 26.8756C10.3343 38.3895 22.1406 41.9356 32.408 38.0977V31.4617H24.5569V22.3269H42.311V45.5866C25.9918 55.6715 0 48.7886 0 26.5838C0 1.04232 29.5605 -2.54127 40.601 9.51126Z" fill="white"/>
<path fill-rule="evenodd" clip-rule="evenodd" d="M51.4921 5.08213C52.4227 5.09099 53.3299 5.37688 54.0993 5.90376C54.8687 6.43064 55.4659 7.17493 55.8157 8.04281C56.1654 8.91069 56.2519 9.86333 56.0644 10.7806C55.877 11.698 55.4238 12.5389 54.7621 13.1975C54.1004 13.856 53.2598 14.3027 52.3462 14.4813C51.4326 14.6599 50.4869 14.5623 49.6284 14.2009C48.7698 13.8394 48.0368 13.2303 47.5217 12.4503C47.0066 11.6703 46.7325 10.7544 46.7339 9.81785C46.7368 9.19236 46.8623 8.57359 47.1031 7.99694C47.3439 7.42029 47.6953 6.89707 48.1372 6.45722C48.5792 6.01736 49.1029 5.66951 49.6786 5.43356C50.2543 5.19761 50.8705 5.07818 51.4921 5.08213Z" fill="white"/>
<path d="M56.2153 18.5637H46.7063V49.3496H56.2153V18.5637Z" fill="white"/>
<path fill-rule="evenodd" clip-rule="evenodd" d="M88.3173 49.3496H80.2283V45.4069C79.9681 46.2748 78.3696 48.1002 76.1987 49.1476C72.2955 51.018 60.1843 51.6614 60.1843 37.5515V18.5637H69.4852V35.7709C69.4852 43.1251 76.6522 43.3046 78.5704 38.2023C78.8432 37.3006 78.9761 36.3618 78.9644 35.4193V18.5637H88.2876V49.3496" fill="white"/>
<path d="M102.705 4.29651H93.1956V49.3495H102.705V4.29651Z" fill="white"/>
<path fill-rule="evenodd" clip-rule="evenodd" d="M112.339 5.08245C113.27 5.09131 114.177 5.3772 114.946 5.90408C115.716 6.43096 116.313 7.17525 116.663 8.04313C117.012 8.91102 117.099 9.86365 116.911 10.781C116.724 11.6983 116.271 12.5392 115.609 13.1978C114.947 13.8563 114.107 14.3031 113.193 14.4816C112.28 14.6602 111.334 14.5626 110.475 14.2012C109.617 13.8398 108.884 13.2307 108.369 12.4507C107.853 11.6707 107.579 10.7547 107.581 9.81817C107.589 8.55554 108.094 7.34765 108.986 6.45974C109.878 5.57183 111.084 5.07648 112.339 5.08245Z" fill="white"/>
<path d="M117.097 18.5637H107.581V49.3496H117.097V18.5637Z" fill="white"/>
<path fill-rule="evenodd" clip-rule="evenodd" d="M140.494 36.3618C140.783 44.2023 131.572 44.509 130.457 41.2995C128.613 36.0625 137.326 36.257 140.308 36.3618H140.486H140.494ZM140.486 29.6285C140.404 25.6709 132.115 23.1122 127.193 28.7532L122.122 23.6434C133.676 12.7505 149.237 19.6109 149.385 29.0599V49.357H141.371V45.5489C136.828 53.0303 119.989 51.145 120.554 40.4691C121.163 29.6285 133.029 30.3243 140.352 29.6285H140.494H140.486Z" fill="white"/>
<path fill-rule="evenodd" clip-rule="evenodd" d="M296.006 36.3619C296.296 44.2024 287.084 44.5092 285.969 41.2996C284.125 36.0627 292.839 36.2572 295.82 36.3619H295.998H296.006ZM295.998 29.6287C295.917 25.671 287.627 23.1124 282.705 28.7533L277.754 23.5163C289.307 12.6234 304.734 19.6185 304.883 29.0675V49.3571H296.883V45.5491C292.341 53.0305 275.501 51.1452 276.066 40.4692C276.668 29.6287 288.541 30.3244 295.865 29.6287H296.006H295.998Z" fill="white"/>
<path fill-rule="evenodd" clip-rule="evenodd" d="M180.953 4.29651L198.023 32.2545V4.29651H208.179V49.4617H198.023L181.035 23.5087V49.4617H170.834V4.29651H180.953Z" fill="white"/>
<path fill-rule="evenodd" clip-rule="evenodd" d="M276.356 18.5637L263.732 49.3496H254.684L242.343 18.5637H252.372L259.346 38.3145L265.925 18.5637H276.356Z" fill="white"/>
<path fill-rule="evenodd" clip-rule="evenodd" d="M228.024 26.8233C229.391 26.8337 230.724 27.251 231.855 28.0226C232.986 28.7942 233.866 29.8856 234.381 31.1592C234.897 32.4328 235.027 33.8315 234.754 35.1792C234.481 36.5268 233.818 37.763 232.848 38.7319C231.878 39.7007 230.644 40.3589 229.303 40.6235C227.962 40.888 226.573 40.747 225.311 40.2184C224.049 39.6897 222.971 38.7969 222.213 37.6527C221.455 36.5084 221.05 35.1639 221.05 33.7885C221.062 31.9358 221.802 30.1632 223.109 28.858C224.416 27.5528 226.183 26.8213 228.024 26.8233ZM228.091 17.9579C237.094 17.9579 244.447 25.1325 244.447 33.9382C244.447 42.7438 237.109 49.9109 228.091 49.9109C219.072 49.9109 211.734 42.7363 211.734 33.9382C211.734 25.14 219.095 17.9579 228.098 17.9579H228.091Z" fill="white"/>
<path fill-rule="evenodd" clip-rule="evenodd" d="M360.889 23.5088C353.61 17.1646 344.458 16.1321 338.83 20.9576C337.99 21.6598 337.299 22.5257 336.799 23.5033C336.3 24.4809 336.002 25.5501 335.923 26.6466C335.845 27.743 335.987 28.8441 336.343 29.8837C336.698 30.9233 337.258 31.8799 337.99 32.696C343.559 38.6811 349.447 35.9878 351.811 37.9329C353.662 39.4292 352.555 41.8008 349.581 42.0402C346.332 42.3021 343.908 41.2921 339.916 37.7683L334.325 43.3944C342.235 53.2473 356.718 51.8334 360.71 46.5739C363.818 42.4741 363.684 34.7085 355.774 31.7458C351.915 30.3019 346.243 31.5064 345.053 28.9852C343.744 26.2021 347.44 24.848 350.257 25.6934C352.29 26.2225 354.144 27.2923 355.625 28.7907L360.829 23.5537" fill="white"/>
<path fill-rule="evenodd" clip-rule="evenodd" d="M321.113 19.5287C318.949 20.5687 317.343 22.3941 317.083 23.2694V19.3118H309.001V66.2402H318.325V33.2496C318.313 32.3071 318.446 31.3684 318.719 30.4665C320.206 26.4939 324.875 25.7383 326.897 29.0675L334.168 21.7507C330.324 17.5462 323.804 18.2494 321.135 19.5063" fill="white"/>
<path d="M368.685 9.21451C368.668 7.88053 368.916 6.55664 369.414 5.32028C369.863 4.2261 370.541 3.24245 371.402 2.43685C372.244 1.63665 373.236 1.01436 374.321 0.606771C375.45 0.197621 376.642 -0.0076908 377.842 0.000292322C379.059 -0.00884753 380.269 0.196407 381.416 0.606771C382.498 0.99351 383.491 1.59809 384.334 2.38365C385.192 3.20627 385.86 4.20885 386.29 5.32028C386.782 6.57642 387.022 7.91783 386.998 9.26771C387.022 10.6195 386.774 11.9622 386.269 13.2151C385.821 14.3096 385.143 15.2934 384.281 16.0986C383.435 16.8802 382.443 17.4842 381.363 17.8755C380.234 18.2844 379.042 18.4897 377.842 18.4819C376.617 18.4945 375.4 18.2891 374.247 17.8755C373.163 17.4716 372.174 16.8488 371.339 16.0454C370.486 15.2386 369.819 14.2546 369.383 13.1619C368.894 11.9053 368.657 10.5637 368.685 9.21451ZM370.863 9.21451C370.832 10.3049 371.019 11.3904 371.413 12.4065C371.747 13.2486 372.259 14.0075 372.914 14.6303C373.558 15.2249 374.318 15.6779 375.145 15.9603C376.012 16.2666 376.924 16.4214 377.842 16.4178C378.779 16.4251 379.711 16.2778 380.601 15.9815C381.425 15.7089 382.179 15.2586 382.811 14.6622C383.456 14.0373 383.958 13.2784 384.281 12.4384C384.662 11.4189 384.845 10.3353 384.82 9.24643C384.851 8.15617 384.664 7.07085 384.27 6.05444C383.935 5.21278 383.423 4.45413 382.769 3.83068C382.131 3.23618 381.379 2.77987 380.559 2.49005C379.689 2.18588 378.773 2.03471 377.852 2.04317C376.9 2.0311 375.952 2.18222 375.05 2.49005C374.228 2.77445 373.474 3.23141 372.84 3.83068C372.178 4.45167 371.665 5.21563 371.339 6.06508C370.988 7.07614 370.826 8.1441 370.863 9.21451ZM374.278 4.69252C374.787 4.5548 375.307 4.46924 375.833 4.43716C376.502 4.38042 377.137 4.35204 377.736 4.35204C378.603 4.32708 379.461 4.5365 380.221 4.95852C380.578 5.17699 380.867 5.49265 381.054 5.86913C381.241 6.24561 381.319 6.66761 381.278 7.08652C381.287 7.41606 381.222 7.74338 381.088 8.04411C380.969 8.29726 380.812 8.53051 380.623 8.73571C380.449 8.92401 380.245 9.08218 380.02 9.20387C379.82 9.31312 379.607 9.3954 379.385 9.44859L382.357 13.7046H380.242L377.546 10.087H376.097V13.7046H374.299V4.69252H374.278ZM377.355 5.90548H376.626C376.436 5.90716 376.25 5.94695 376.076 6.02252V8.61867H377.25C378.659 8.61867 379.364 8.12214 379.364 7.12908C379.364 6.31334 378.695 5.90903 377.355 5.91612V5.90548Z" fill="white"/>
</svg>
