<svg width="606" height="550" viewBox="0 0 606 550" fill="none" xmlns="http://www.w3.org/2000/svg">
<path d="M363.967 481.538C330.271 490.566 303.219 491.521 279.72 486.71C256.222 481.899 236.24 471.315 216.693 457.205C201.332 446.117 186.26 432.869 169.963 418.543C165.51 414.628 160.965 410.633 156.298 406.58C134.56 387.701 110.195 367.583 80.1304 348.523C50.2965 329.608 40.3459 299.351 43.785 265.714C47.2262 232.056 64.0783 195.057 87.8007 162.833C111.522 130.61 142.075 103.213 172.858 88.7256C203.639 74.2389 234.56 72.6914 259.17 91.9745C284.093 111.503 315.556 119.463 348.366 122.972C364.774 124.727 381.534 125.37 397.995 125.785C402.075 125.887 406.136 125.976 410.168 126.064C422.415 126.332 434.401 126.594 445.868 127.225C476.375 128.906 503.042 133.204 520.915 147.068C538.732 160.89 547.923 184.323 543.216 224.599C533.778 305.35 522.634 360.535 497.037 400.058C471.465 439.543 431.417 463.464 363.967 481.538Z" stroke="#323131"/>
<path d="M355.817 468.527C323.876 477.086 298.235 477.991 275.963 473.431C253.692 468.872 234.752 458.84 216.224 445.466C201.663 434.957 187.377 422.399 171.929 408.819C167.706 405.108 163.397 401.32 158.972 397.477C138.365 379.581 115.266 360.509 86.7633 342.439C58.4916 324.516 49.061 295.845 52.3208 263.965C55.5828 232.064 71.5562 196.995 94.0433 166.45C116.53 135.906 145.49 109.938 174.667 96.2061C203.843 82.4754 233.144 81.011 256.464 99.2822C280.096 117.798 309.928 125.345 341.034 128.672C356.59 130.335 372.479 130.945 388.084 131.337C391.952 131.435 395.801 131.519 399.624 131.602C411.234 131.856 422.596 132.104 433.466 132.703C462.387 134.296 487.66 138.369 504.596 151.507C521.476 164.601 530.188 186.804 525.726 224.979C516.778 301.529 506.214 353.836 481.951 391.297C457.714 428.72 419.756 451.395 355.817 468.527Z" stroke="#1E2528"/>
<path d="M348.662 457.491C318.797 465.493 294.825 466.344 274.007 462.091C253.188 457.838 235.485 448.473 218.165 435.984C204.554 426.17 191.2 414.443 176.757 401.759C172.81 398.293 168.781 394.755 164.644 391.165C145.378 374.45 123.782 356.636 97.1319 339.76C70.7131 323.03 61.9045 296.26 64.9593 266.484C68.0162 236.687 82.9577 203.926 103.99 175.386C125.021 146.848 152.104 122.584 179.384 109.751C206.663 96.9193 234.048 95.548 255.836 112.602C277.937 129.901 305.837 136.945 334.925 140.046C353.062 141.98 371.723 142.382 389.747 142.772C400.599 143.006 411.22 143.235 421.357 143.79C448.4 145.272 472.022 149.072 487.846 161.335C503.615 173.555 511.756 194.282 507.575 229.942C499.19 301.461 489.299 350.325 466.608 385.322C443.941 420.281 408.451 441.471 348.662 457.491Z" stroke="#1E2528"/>
<path d="M336.405 435.369C310.729 442.249 290.125 442.984 272.235 439.337C254.346 435.69 239.133 427.653 224.246 416.931C212.546 408.504 201.068 398.434 188.651 387.54C185.257 384.563 181.793 381.524 178.235 378.44C161.67 364.082 143.099 348.779 120.18 334.282C97.493 319.932 89.9302 296.963 92.562 271.399C95.1959 245.814 108.046 217.674 126.134 193.156C144.222 168.638 167.509 147.794 190.959 136.768C214.407 125.743 237.927 124.567 256.631 139.192C275.649 154.061 299.656 160.11 324.675 162.768C340.274 164.425 356.328 164.767 371.83 165.097C381.162 165.296 390.294 165.491 399.006 165.965C422.262 167.232 442.555 170.492 456.141 181.01C469.672 191.484 476.667 209.261 473.065 239.887C465.838 301.338 457.322 343.307 437.81 373.365C418.323 403.386 387.817 421.593 336.405 435.369Z" stroke="#1E2528"/>
</svg>
