<svg width="28" height="31" viewBox="0 0 28 31" fill="none" xmlns="http://www.w3.org/2000/svg">
<path fill-rule="evenodd" clip-rule="evenodd" d="M3.1875 2.125C2.90571 2.125 2.63546 2.23694 2.4362 2.4362C2.23694 2.63546 2.125 2.90571 2.125 3.1875V26.7027L10.625 21.0354L19.125 26.7027V15.9375C19.125 15.6557 19.2369 15.3855 19.4362 15.1862C19.6355 14.9869 19.9057 14.875 20.1875 14.875C20.4693 14.875 20.7395 14.9869 20.9388 15.1862C21.1381 15.3855 21.25 15.6557 21.25 15.9375V30.6723L10.625 23.5896L0 30.6723V3.1875C0 2.34212 0.335825 1.53137 0.933597 0.933597C1.53137 0.335825 2.34212 0 3.1875 0H11.6875C11.9693 0 12.2395 0.111942 12.4388 0.311199C12.6381 0.510456 12.75 0.780707 12.75 1.0625C12.75 1.34429 12.6381 1.61454 12.4388 1.8138C12.2395 2.01306 11.9693 2.125 11.6875 2.125H3.1875Z" fill="#E21219"/>
<path fill-rule="evenodd" clip-rule="evenodd" d="M27.3148 2.4352C27.4137 2.53389 27.4922 2.65114 27.5458 2.78022C27.5994 2.90931 27.6269 3.04769 27.6269 3.18745C27.6269 3.3272 27.5994 3.46558 27.5458 3.59467C27.4922 3.72375 27.4137 3.841 27.3148 3.9397L20.9398 10.3147C20.8411 10.4136 20.7238 10.4921 20.5947 10.5457C20.4657 10.5993 20.3273 10.6268 20.1875 10.6268C20.0478 10.6268 19.9094 10.5993 19.7803 10.5457C19.6512 10.4921 19.534 10.4136 19.4353 10.3147L16.2478 7.1272C16.149 7.02841 16.0706 6.91113 16.0172 6.78206C15.9637 6.65299 15.9362 6.51465 15.9362 6.37495C15.9362 6.23524 15.9637 6.0969 16.0172 5.96783C16.0706 5.83876 16.149 5.72148 16.2478 5.6227C16.3466 5.52391 16.4638 5.44555 16.5929 5.39208C16.722 5.33862 16.8603 5.3111 17 5.3111C17.1397 5.3111 17.2781 5.33862 17.4071 5.39208C17.5362 5.44555 17.6535 5.52391 17.7523 5.6227L20.1875 8.06007L25.8103 2.4352C25.909 2.33625 26.0262 2.25775 26.1553 2.20418C26.2844 2.15062 26.4228 2.12305 26.5625 2.12305C26.7023 2.12305 26.8407 2.15062 26.9697 2.20418C27.0988 2.25775 27.2161 2.33625 27.3148 2.4352Z" fill="#E21219"/>
</svg>
