<svg width="14" height="15" viewBox="0 0 14 15" fill="none" xmlns="http://www.w3.org/2000/svg">
<g clip-path="url(#clip0)">
<path d="M11.8125 2.21727C13.1628 3.55677 13.838 5.17174 13.838 7.06217C13.838 8.95261 13.1628 10.5676 11.8125 11.9071C10.4622 13.2466 8.83642 13.9163 6.93518 13.9163C5.76852 13.9163 4.67747 13.6355 3.66204 13.0737L0 14.0136L0.972222 10.4812C0.367284 9.42251 0.0648148 8.27745 0.0648148 7.04597C0.0648148 5.16634 0.734568 3.55677 2.07407 2.21727C3.41358 0.877761 5.03395 0.208008 6.93518 0.208008C8.83642 0.208008 10.4622 0.877761 11.8125 2.21727ZM6.93518 12.7497C8.51235 12.7497 9.86265 12.1933 10.9861 11.0807C12.1096 9.96804 12.6713 8.62313 12.6713 7.04597C12.6713 5.46881 12.1096 4.1239 10.9861 3.01125C9.86265 1.89859 8.51235 1.34227 6.93518 1.34227C5.35802 1.34227 4.01312 1.89859 2.90046 3.01125C1.78781 4.1239 1.23148 5.46881 1.23148 7.04597C1.23148 8.14782 1.52315 9.16325 2.10648 10.0923L2.23611 10.2867L1.65278 12.3932L3.82407 11.8423L4.01852 11.9395C4.92593 12.4796 5.89815 12.7497 6.93518 12.7497ZM10.0787 8.4719C10.2731 8.57992 10.3812 8.65554 10.4028 8.69875C10.4892 8.82838 10.4568 9.09844 10.3056 9.50893C10.2407 9.68177 10.0787 9.84921 9.81944 10.0112C9.56019 10.1733 9.33333 10.2759 9.13889 10.3191C8.75 10.3623 8.39352 10.3407 8.06944 10.2543C7.70216 10.1247 7.37809 10.0058 7.09722 9.89782C6.92438 9.8114 6.75694 9.71958 6.59491 9.62236C6.43287 9.52514 6.27623 9.42791 6.125 9.33069C5.97377 9.23347 5.83333 9.13085 5.7037 9.02282C5.57407 8.9148 5.44985 8.80677 5.33102 8.69875C5.21219 8.59072 5.09877 8.4773 4.99074 8.35847C4.88272 8.23964 4.79089 8.13702 4.71528 8.0506C4.63966 7.96418 4.56404 7.87236 4.48843 7.77514C4.41281 7.67792 4.35339 7.6023 4.31018 7.54829C4.26698 7.49427 4.22917 7.44026 4.19676 7.38625L4.14815 7.30523C3.67284 6.67869 3.43519 6.08455 3.43519 5.52282C3.43519 5.0043 3.64043 4.529 4.05093 4.0969C4.18056 3.94566 4.33179 3.87004 4.50463 3.87004C4.63426 3.87004 4.74228 3.88085 4.8287 3.90245C5.00154 3.90245 5.13117 3.99967 5.21759 4.19412C5.2608 4.25893 5.32562 4.39937 5.41204 4.61542L5.63889 5.18254L5.73611 5.45801C5.80093 5.56603 5.81173 5.66325 5.76852 5.74967C5.7037 5.90091 5.64969 5.99813 5.60648 6.04134L5.50926 6.13856L5.41204 6.25199L5.34722 6.33301C5.21759 6.46264 5.18518 6.58146 5.25 6.68949C5.53086 7.1648 5.85494 7.56449 6.22222 7.88856C6.50309 8.12622 6.96759 8.40708 7.61574 8.73116C7.76697 8.79597 7.8858 8.78517 7.97222 8.69875C8.23148 8.37467 8.41512 8.14782 8.52315 8.01819C8.60957 7.88856 8.7392 7.85616 8.91204 7.92097C9.04167 7.98579 9.43056 8.16943 10.0787 8.4719Z" fill="#DA251D"/>
</g>
<defs>
<clipPath id="clip0">
<rect width="14" height="14" fill="white" transform="translate(0 0.110352)"/>
</clipPath>
</defs>
</svg>
